<svg width="14" height="14" viewBox="0 0 14 14" fill="none" xmlns="http://www.w3.org/2000/svg">
<path d="M6.33338 4.99992H7.66671C7.84352 4.99992 8.01309 5.07016 8.13811 5.19518C8.26314 5.32021 8.33338 5.48977 8.33338 5.66659C8.33338 5.8434 8.40361 6.01297 8.52864 6.13799C8.65366 6.26301 8.82323 6.33325 9.00004 6.33325C9.17685 6.33325 9.34642 6.26301 9.47145 6.13799C9.59647 6.01297 9.66671 5.8434 9.66671 5.66659C9.66671 5.13615 9.456 4.62744 9.08092 4.25237C8.70585 3.8773 8.19714 3.66659 7.66671 3.66659H6.33338C5.80294 3.66659 5.29424 3.8773 4.91916 4.25237C4.54409 4.62744 4.33338 5.13615 4.33338 5.66659V8.33325C4.33338 8.86369 4.54409 9.37239 4.91916 9.74747C5.29424 10.1225 5.80294 10.3333 6.33338 10.3333H7.66671C8.19714 10.3333 8.70585 10.1225 9.08092 9.74747C9.456 9.37239 9.66671 8.86369 9.66671 8.33325C9.66671 8.15644 9.59647 7.98687 9.47145 7.86185C9.34642 7.73682 9.17685 7.66659 9.00004 7.66659C8.82323 7.66659 8.65366 7.73682 8.52864 7.86185C8.40361 7.98687 8.33338 8.15644 8.33338 8.33325C8.33338 8.51006 8.26314 8.67963 8.13811 8.80466C8.01309 8.92968 7.84352 8.99992 7.66671 8.99992H6.33338C6.15657 8.99992 5.987 8.92968 5.86197 8.80466C5.73695 8.67963 5.66671 8.51006 5.66671 8.33325V5.66659C5.66671 5.48977 5.73695 5.32021 5.86197 5.19518C5.987 5.07016 6.15657 4.99992 6.33338 4.99992ZM7.00004 0.333252C5.6815 0.333252 4.39257 0.724245 3.29624 1.45679C2.19991 2.18933 1.34543 3.23052 0.840847 4.4487C0.336263 5.66687 0.20424 7.00731 0.461475 8.30052C0.71871 9.59373 1.35365 10.7816 2.286 11.714C3.21835 12.6463 4.40623 13.2813 5.69944 13.5385C6.99265 13.7957 8.33309 13.6637 9.55127 13.1591C10.7694 12.6545 11.8106 11.8 12.5432 10.7037C13.2757 9.60739 13.6667 8.31846 13.6667 6.99992C13.6667 6.12444 13.4943 5.25753 13.1592 4.4487C12.8242 3.63986 12.3331 2.90493 11.7141 2.28587C11.095 1.66682 10.3601 1.17575 9.55127 0.840722C8.74243 0.50569 7.87552 0.333252 7.00004 0.333252ZM7.00004 12.3333C5.94521 12.3333 4.91406 12.0205 4.037 11.4344C3.15994 10.8484 2.47635 10.0154 2.07269 9.0409C1.66902 8.06636 1.5634 6.994 1.76919 5.95944C1.97498 4.92487 2.48293 3.97456 3.22881 3.22868C3.97469 2.4828 4.925 1.97485 5.95956 1.76906C6.99413 1.56328 8.06648 1.66889 9.04102 2.07256C10.0156 2.47623 10.8485 3.15982 11.4345 4.03688C12.0206 4.91394 12.3334 5.94509 12.3334 6.99992C12.3334 8.41441 11.7715 9.77096 10.7713 10.7712C9.77109 11.7713 8.41453 12.3333 7.00004 12.3333Z" fill="#1E0D03"/>
</svg>
